<svg data-v-29081953="" xmlns="http://www.w3.org/2000/svg" viewBox="0 0 300 300"><!----><defs data-v-29081953=""><!----></defs><rect data-v-29081953="" fill="transparent" x="0" y="0" width="300px" height="300px" class="logo-background-square"></rect><!----><defs data-v-29081953=""><linearGradient data-v-29081953="" gradientTransform="rotate(25)" id="2d19d2c2-b45b-44ec-a103-a3b74655d1e3" x1="0%" y1="0%" x2="100%" y2="0%"><stop data-v-29081953="" offset="0%" stop-color="#288642" stop-opacity="1"></stop><stop data-v-29081953="" offset="100%" stop-color="#27FDFD" stop-opacity="1"></stop></linearGradient></defs><g data-v-29081953="" id="27d8d706-e12e-4958-bbf3-d61f73e73e25" fill="url(#2d19d2c2-b45b-44ec-a103-a3b74655d1e3)" stroke="none" transform="matrix(1.743544447932574,0,0,1.743544447932574,38.527771768698884,38.41315200676815)"><path d="M50.2 104.4C40.7 96.3 27 82 18.2 61.2c-.5-1.3.1-2.8 1.3-3.3 1.3-.5 2.8.1 3.3 1.3 4 9.4 9.1 17.5 14.3 24.2-2.3-6.2-3.5-12.6-3.5-19.3 0-6.2 1-12.2 2.9-18-9.4-5-20.8-7.6-33.7-7-9.1 39.1 14.4 69.8 53 71-1.9-1.8-3.8-3.7-5.6-5.7zM125.1 39.1c-12.9-.6-24.3 2-33.7 7 1.9 5.7 3 11.7 3 17.8 0 6.6-1.1 13.1-3.4 19.3 5.2-6.7 10.3-14.7 14.2-24 .5-1.3 2-1.9 3.3-1.3 1.3.5 1.9 2 1.3 3.3-8.7 20.4-22 34.5-31.4 42.7-1.9 2.2-4 4.2-6.2 6.2 38.5-1.3 61.9-31.9 52.9-71z"></path><path d="M63.9 17.9c-32.4 24.7-33.4 64-3.3 89.6-2.5-9.2-7.6-34.4.9-62.9.4-1.3 1.8-2.1 3.2-1.7 1.3.4 2.1 1.8 1.7 3.2-9 30.3-1.7 57.4-.1 62.5 31.4-25.7 30.6-65.9-2.4-90.7z"></path></g><!----></svg>
