<svg data-v-29081953="" xmlns="http://www.w3.org/2000/svg" viewBox="0 0 300 300"><!----><defs data-v-29081953=""><!----></defs><rect data-v-29081953="" fill="transparent" x="0" y="0" width="100px" height="20px" class="logo-background-square"></rect><defs data-v-29081953=""><!----></defs><g data-v-29081953="" id="17e333c2-1589-418a-a6b2-2a942e5d63cf" fill="#000000" transform="matrix(3.604437310326668,0,0,3.604437310326668,124.72546548331067,118.82161778129323)"><path d="M5.85 13.66L5.85 13.66Q4.38 13.66 3.20 13.01L3.20 13.01L3.20 13.01Q2.02 12.36 1.34 11.22L1.34 11.22L1.34 11.22Q0.67 10.08 0.67 8.65L0.67 8.65L0.67 8.65Q0.67 7.22 1.34 6.08L1.34 6.08L1.34 6.08Q2.02 4.94 3.21 4.29L3.21 4.29L3.21 4.29Q4.40 3.64 5.87 3.64L5.87 3.64L5.87 3.64Q7.01 3.64 7.97 4.02L7.97 4.02L7.97 4.02Q8.92 4.41 9.59 5.17L9.59 5.17L8.68 6.05L8.68 6.05Q7.57 4.89 5.92 4.89L5.92 4.89L5.92 4.89Q4.83 4.89 3.95 5.38L3.95 5.38L3.95 5.38Q3.07 5.87 2.57 6.73L2.57 6.73L2.57 6.73Q2.07 7.59 2.07 8.65L2.07 8.65L2.07 8.65Q2.07 9.72 2.57 10.58L2.57 10.58L2.57 10.58Q3.07 11.44 3.95 11.93L3.95 11.93L3.95 11.93Q4.83 12.42 5.92 12.42L5.92 12.42L5.92 12.42Q7.56 12.42 8.68 11.24L8.68 11.24L9.59 12.12L9.59 12.12Q8.92 12.88 7.96 13.27L7.96 13.27L7.96 13.27Q7 13.66 5.85 13.66L5.85 13.66ZM14.57 13.64L14.57 13.64Q13.47 13.64 12.59 13.15L12.59 13.15L12.59 13.15Q11.70 12.66 11.21 11.79L11.21 11.79L11.21 11.79Q10.71 10.93 10.71 9.84L10.71 9.84L10.71 9.84Q10.71 8.75 11.21 7.89L11.21 7.89L11.21 7.89Q11.70 7.03 12.59 6.54L12.59 6.54L12.59 6.54Q13.47 6.06 14.57 6.06L14.57 6.06L14.57 6.06Q15.68 6.06 16.55 6.54L16.55 6.54L16.55 6.54Q17.43 7.03 17.93 7.89L17.93 7.89L17.93 7.89Q18.42 8.75 18.42 9.84L18.42 9.84L18.42 9.84Q18.42 10.93 17.93 11.79L17.93 11.79L17.93 11.79Q17.43 12.66 16.55 13.15L16.55 13.15L16.55 13.15Q15.68 13.64 14.57 13.64L14.57 13.64ZM14.57 12.46L14.57 12.46Q15.29 12.46 15.86 12.13L15.86 12.13L15.86 12.13Q16.42 11.80 16.74 11.21L16.74 11.21L16.74 11.21Q17.07 10.61 17.07 9.84L17.07 9.84L17.07 9.84Q17.07 9.07 16.74 8.48L16.74 8.48L16.74 8.48Q16.42 7.88 15.86 7.56L15.86 7.56L15.86 7.56Q15.29 7.24 14.57 7.24L14.57 7.24L14.57 7.24Q13.86 7.24 13.29 7.56L13.29 7.56L13.29 7.56Q12.73 7.88 12.40 8.48L12.40 8.48L12.40 8.48Q12.07 9.07 12.07 9.84L12.07 9.84L12.07 9.84Q12.07 10.61 12.40 11.21L12.40 11.21L12.40 11.21Q12.73 11.80 13.29 12.13L13.29 12.13L13.29 12.13Q13.86 12.46 14.57 12.46L14.57 12.46ZM27.51 3.75L28.91 3.75L28.91 13.55L27.76 13.55L21.88 6.24L21.88 13.55L20.48 13.55L20.48 3.75L21.63 3.75L27.51 11.06L27.51 3.75ZM34.36 6.06L34.36 6.06Q35.90 6.06 36.72 6.82L36.72 6.82L36.72 6.82Q37.53 7.57 37.53 9.07L37.53 9.07L37.53 13.55L36.26 13.55L36.26 12.57L36.26 12.57Q35.92 13.09 35.30 13.36L35.30 13.36L35.30 13.36Q34.68 13.64 33.82 13.64L33.82 13.64L33.82 13.64Q32.58 13.64 31.83 13.03L31.83 13.03L31.83 13.03Q31.08 12.43 31.08 11.45L31.08 11.45L31.08 11.45Q31.08 10.47 31.79 9.88L31.79 9.88L31.79 9.88Q32.51 9.28 34.06 9.28L34.06 9.28L36.19 9.28L36.19 9.02L36.19 9.02Q36.19 8.15 35.69 7.69L35.69 7.69L35.69 7.69Q35.18 7.22 34.20 7.22L34.20 7.22L34.20 7.22Q33.54 7.22 32.91 7.44L32.91 7.44L32.91 7.44Q32.28 7.66 31.85 8.02L31.85 8.02L31.29 7.01L31.29 7.01Q31.86 6.55 32.66 6.31L32.66 6.31L32.66 6.31Q33.46 6.06 34.36 6.06L34.36 6.06ZM34.05 12.60L34.05 12.60Q34.82 12.60 35.38 12.26L35.38 12.26L35.38 12.26Q35.94 11.91 36.19 11.28L36.19 11.28L36.19 10.25L34.12 10.25L34.12 10.25Q32.41 10.25 32.41 11.40L32.41 11.40L32.41 11.40Q32.41 11.96 32.84 12.28L32.84 12.28L32.84 12.28Q33.28 12.60 34.05 12.60L34.05 12.60Z"></path></g><defs data-v-29081953=""><linearGradient data-v-29081953="" gradientTransform="rotate(25)" id="df83a710-3451-4d4d-949e-a45eeca8fa55" x1="0%" y1="0%" x2="100%" y2="0%"><stop data-v-29081953="" offset="0%" stop-color="#288642" stop-opacity="1"></stop><stop data-v-29081953="" offset="100%" stop-color="#27FDFD" stop-opacity="1"></stop></linearGradient></defs><g data-v-29081953="" id="64a6513a-2acc-48e7-a0a7-a7f85fb7d003" stroke="none" fill="url(#df83a710-3451-4d4d-949e-a45eeca8fa55)" transform="matrix(0.5875779544823553,0,0,0.5875779544823553,39.50385615135603,112.39500979241326)"><path d="M50.2 104.4C40.7 96.3 27 82 18.2 61.2c-.5-1.3.1-2.8 1.3-3.3 1.3-.5 2.8.1 3.3 1.3 4 9.4 9.1 17.5 14.3 24.2-2.3-6.2-3.5-12.6-3.5-19.3 0-6.2 1-12.2 2.9-18-9.4-5-20.8-7.6-33.7-7-9.1 39.1 14.4 69.8 53 71-1.9-1.8-3.8-3.7-5.6-5.7zM125.1 39.1c-12.9-.6-24.3 2-33.7 7 1.9 5.7 3 11.7 3 17.8 0 6.6-1.1 13.1-3.4 19.3 5.2-6.7 10.3-14.7 14.2-24 .5-1.3 2-1.9 3.3-1.3 1.3.5 1.9 2 1.3 3.3-8.7 20.4-22 34.5-31.4 42.7-1.9 2.2-4 4.2-6.2 6.2 38.5-1.3 61.9-31.9 52.9-71z"></path><path d="M63.9 17.9c-32.4 24.7-33.4 64-3.3 89.6-2.5-9.2-7.6-34.4.9-62.9.4-1.3 1.8-2.1 3.2-1.7 1.3.4 2.1 1.8 1.7 3.2-9 30.3-1.7 57.4-.1 62.5 31.4-25.7 30.6-65.9-2.4-90.7z"></path></g><!----></svg>
